REM DIRINDEX 1\2\6,1\2\7,1\2\8,1\2\9,1\3\10,1\3\11,1\4\12,1\4\13,1\4\14,1\5\15,1\5\16,1\5\17
REM DIRNAME folder01,folder02,folder03,folder04,folder05,folder06,folder07,folder08,folder09,folder10,folder11,folder12,folder13,folder14,folder15,folder16,folder17
TITLE ""
FILE "1400_3_sec10_0933_0949.mp3" MP3
  TRACK 01 AUDIO
    TITLE "0:"
    INDEX 01 00:00:00
  TRACK 02 AUDIO
    TITLE "17:cjc029_6302"
    INDEX 01 00:00:15
  TRACK 03 AUDIO
    TITLE "0:"
    INDEX 01 00:01:36
  TRACK 04 AUDIO
    TITLE "16:cjc029_6303"
    INDEX 01 00:01:44
  TRACK 05 AUDIO
    TITLE "0:"
    INDEX 01 00:02:67
  TRACK 06 AUDIO
    TITLE "17:cjc029_6304"
    INDEX 01 00:03:51
  TRACK 07 AUDIO
    TITLE "0:"
    INDEX 01 00:06:73
  TRACK 08 AUDIO
    TITLE "16:cjc029_6305"
    INDEX 01 00:07:03
  TRACK 09 AUDIO
    TITLE "0:"
    INDEX 01 00:08:48
  TRACK 10 AUDIO
    TITLE "17:cjc029_6306"
    INDEX 01 00:09:36
  TRACK 11 AUDIO
    TITLE "0:"
    INDEX 01 00:12:71
  TRACK 12 AUDIO
    TITLE "16:cjc029_6307"
    INDEX 01 00:13:02
  TRACK 13 AUDIO
    TITLE "0:"
    INDEX 01 00:14:11
  TRACK 14 AUDIO
    TITLE "17:cjc029_6308"
    INDEX 01 00:14:74
  TRACK 15 AUDIO
    TITLE "0:"
    INDEX 01 00:16:55
  TRACK 16 AUDIO
    TITLE "16:cjc029_6309"
    INDEX 01 00:16:65
  TRACK 17 AUDIO
    TITLE "0:"
    INDEX 01 00:18:19
  TRACK 18 AUDIO
    TITLE "17:cjc029_6310"
    INDEX 01 00:19:07
  TRACK 19 AUDIO
    TITLE "0:"
    INDEX 01 00:21:57
  TRACK 20 AUDIO
    TITLE "16:cjc029_6311"
    INDEX 01 00:21:62
  TRACK 21 AUDIO
    TITLE "0:"
    INDEX 01 00:23:03
  TRACK 22 AUDIO
    TITLE "17:cjc029_6312"
    INDEX 01 00:23:61
  TRACK 23 AUDIO
    TITLE "0:"
    INDEX 01 00:25:09
  TRACK 24 AUDIO
    TITLE "16:cjc029_6313"
    INDEX 01 00:25:13
  TRACK 25 AUDIO
    TITLE "0:"
    INDEX 01 00:26:40
  TRACK 26 AUDIO
    TITLE "17:cjc029_6314"
    INDEX 01 00:27:26
  TRACK 27 AUDIO
    TITLE "0:"
    INDEX 01 00:28:49
  TRACK 28 AUDIO
    TITLE "16:cjc029_6315"
    INDEX 01 00:28:53
  TRACK 29 AUDIO
    TITLE "0:"
    INDEX 01 00:29:58
  TRACK 30 AUDIO
    TITLE "17:cjc029_6316"
    INDEX 01 00:30:48
  TRACK 31 AUDIO
    TITLE "0:"
    INDEX 01 00:32:70
  TRACK 32 AUDIO
    TITLE "16:cjc029_6317"
    INDEX 01 00:33:01
  TRACK 33 AUDIO
    TITLE "0:"
    INDEX 01 00:33:69
  TRACK 34 AUDIO
    TITLE "17:cjc029_6318"
    INDEX 01 00:34:53
  TRACK 35 AUDIO
    TITLE "0:"
    INDEX 01 00:35:61
  TRACK 36 AUDIO
    TITLE "16:cjc029_6319"
    INDEX 01 00:35:64
  TRACK 37 AUDIO
    TITLE "0:"
    INDEX 01 00:37:08
  TRACK 38 AUDIO
    TITLE "17:cjc029_6320"
    INDEX 01 00:37:67
  TRACK 39 AUDIO
    TITLE "0:"
    INDEX 01 00:39:03
  TRACK 40 AUDIO
    TITLE "16:cjc029_6321"
    INDEX 01 00:39:09
  TRACK 41 AUDIO
    TITLE "0:"
    INDEX 01 00:40:24
  TRACK 42 AUDIO
    TITLE "17:cjc029_6322"
    INDEX 01 00:41:10
  TRACK 43 AUDIO
    TITLE "0:"
    INDEX 01 00:42:10
  TRACK 44 AUDIO
    TITLE "16:cjc029_6323"
    INDEX 01 00:42:16
  TRACK 45 AUDIO
    TITLE "0:"
    INDEX 01 00:43:31
  TRACK 46 AUDIO
    TITLE "17:cjc029_6324"
    INDEX 01 00:44:16
  TRACK 47 AUDIO
    TITLE "0:"
    INDEX 01 00:45:16
  TRACK 48 AUDIO
    TITLE "16:cjc029_6325"
    INDEX 01 00:45:24
  TRACK 49 AUDIO
    TITLE "0:"
    INDEX 01 00:46:54
  TRACK 50 AUDIO
    TITLE "17:cjc029_6326"
    INDEX 01 00:47:36
  TRACK 51 AUDIO
    TITLE "0:"
    INDEX 01 00:48:55
  TRACK 52 AUDIO
    TITLE "16:cjc029_6327"
    INDEX 01 00:48:65
  TRACK 53 AUDIO
    TITLE "0:"
    INDEX 01 00:49:70
  TRACK 54 AUDIO
    TITLE "17:cjc029_6328"
    INDEX 01 00:50:52
  TRACK 55 AUDIO
    TITLE "0:"
    INDEX 01 00:53:19
  TRACK 56 AUDIO
    TITLE "16:cjc029_6329"
    INDEX 01 00:53:21
  TRACK 57 AUDIO
    TITLE "0:"
    INDEX 01 00:54:32
  TRACK 58 AUDIO
    TITLE "17:cjc029_6330"
    INDEX 01 00:55:16
  TRACK 59 AUDIO
    TITLE "0:"
    INDEX 01 00:56:35
  TRACK 60 AUDIO
    TITLE "16:cjc029_6331"
    INDEX 01 00:56:41
  TRACK 61 AUDIO
    TITLE "0:"
    INDEX 01 00:57:52
  TRACK 62 AUDIO
    TITLE "17:cjc029_6332"
    INDEX 01 00:58:34
  TRACK 63 AUDIO
    TITLE "0:"
    INDEX 01 01:00:49
  TRACK 64 AUDIO
    TITLE "16:cjc029_6333"
    INDEX 01 01:00:55
  TRACK 65 AUDIO
    TITLE "0:"
    INDEX 01 01:01:72
  TRACK 66 AUDIO
    TITLE "17:cjc029_6334"
    INDEX 01 01:02:55
  TRACK 67 AUDIO
    TITLE "0:"
    INDEX 01 01:05:42
  TRACK 68 AUDIO
    TITLE "16:cjc029_6335"
    INDEX 01 01:05:48
  TRACK 69 AUDIO
    TITLE "0:"
    INDEX 01 01:06:55
